<svg width="19" height="22" viewBox="0 0 19 22" fill="none" xmlns="http://www.w3.org/2000/svg">
<path d="M10.3679 18.1921C9.84231 18.1921 9.39462 18.0491 9.02484 17.763C8.65505 17.4747 8.37248 17.0572 8.17712 16.5107C7.98177 15.9618 7.88409 15.299 7.88409 14.5222C7.88409 13.7501 7.98177 13.0907 8.17712 12.5442C8.37481 11.9953 8.65854 11.5767 9.02832 11.2883C9.40043 10.9976 9.84697 10.8523 10.3679 10.8523C10.8889 10.8523 11.3342 10.9976 11.704 11.2883C12.0761 11.5767 12.3599 11.9953 12.5552 12.5442C12.7529 13.0907 12.8518 13.7501 12.8518 14.5222C12.8518 15.299 12.7541 15.9618 12.5587 16.5107C12.3634 17.0572 12.0808 17.4747 11.711 17.763C11.3412 18.0491 10.8935 18.1921 10.3679 18.1921ZM10.3679 17.4247C10.8889 17.4247 11.2935 17.1735 11.5819 16.6711C11.8703 16.1688 12.0145 15.4525 12.0145 14.5222C12.0145 13.9036 11.9482 13.3768 11.8157 12.9419C11.6854 12.507 11.497 12.1756 11.2505 11.9477C11.0063 11.7197 10.7121 11.6058 10.3679 11.6058C9.85162 11.6058 9.44811 11.8604 9.1574 12.3698C8.86669 12.8768 8.72133 13.5942 8.72133 14.5222C8.72133 15.1408 8.78645 15.6664 8.91669 16.099C9.04693 16.5316 9.23415 16.8607 9.47834 17.0863C9.72487 17.3119 10.0214 17.4247 10.3679 17.4247Z" fill="black"/>
<path d="M9.74968 1.43524C7.69762 1.43524 6.02759 3.18168 6.02759 5.33198V7.30763H6.87898V5.33198C6.87898 3.65103 8.16697 2.28663 9.76059 2.28663C11.3433 2.28663 12.6422 3.65103 12.6422 5.33198V7.30763H13.3626V7.16573H13.4827V5.33198C13.4718 3.18168 11.8017 1.43524 9.74968 1.43524Z" fill="black"/>
<path d="M17.936 7.87613V20.7576H1.68328V7.87613H17.936ZM18.8093 7.00281H0.810059V21.6309H18.8093V7.00281Z" fill="black"/>
</svg>
